<?xml version="1.0" encoding="UTF-8"?>
<svg width="28px" height="17px" viewBox="0 0 28 17" version="1.1" xmlns="http://www.w3.org/2000/svg" xmlns:xlink="http://www.w3.org/1999/xlink">
    <!-- Generator: Sketch 55.2 (78181) - https://sketchapp.com -->
    <title>keyboard</title>
    <desc>Created with Sketch.</desc>
    <g id="🚀-Components" stroke="none" stroke-width="1" fill="none" fill-rule="evenodd">
        <g id="Component/Desktop/Typography" transform="translate(-130.000000, -268.000000)" fill="#74EBBB">
            <g id="Font-1" transform="translate(128.000000, 174.000000)">
                <g id="UI/Icon/Keyboard" transform="translate(0.000000, 86.000000)">
                    <path d="M29.2761533,10.0248646 L29.2761533,22.4450509 C29.2761533,23.4292398 28.4860299,24.2193632 27.501841,24.2193632 L4.43578081,24.2193632 C3.45159194,24.2193632 2.66146849,23.4292398 2.66146849,22.4450509 L2.66146849,10.0248646 C2.66146849,9.04067576 3.45159194,8.25055231 4.43578081,8.25055231 L27.501841,8.25055231 C28.4860299,8.25055231 29.2761533,9.04067576 29.2761533,10.0248646 Z M28.2781027,22.659909 L28.2781027,9.8100065 C28.2781027,9.4999519 28.0267538,9.24860299 27.7166992,9.24860299 L4.22092268,9.24860299 C3.91086808,9.24860299 3.65951917,9.4999519 3.65951917,9.8100065 L3.65951917,22.659909 C3.65951917,22.9699636 3.91086808,23.2213125 4.22092268,23.2213125 L27.7166992,23.2213125 C28.0267538,23.2213125 28.2781027,22.9699636 28.2781027,22.659909 Z M23.4209227,19.6948668 L23.4209227,21.2917479 C23.4209227,21.4414555 23.3044834,21.5578947 23.1547758,21.5578947 L8.782846,21.5578947 C8.6331384,21.5578947 8.51669916,21.4414555 8.51669916,21.2917479 L8.51669916,19.6948668 C8.51669916,19.5451592 8.6331384,19.4287199 8.782846,19.4287199 L23.1547758,19.4287199 C23.3044834,19.4287199 23.4209227,19.5451592 23.4209227,19.6948668 Z M8.51669916,15.4365172 L8.51669916,17.0333983 C8.51669916,17.1831059 8.40025991,17.2995452 8.25055231,17.2995452 L6.65367122,17.2995452 C6.50396361,17.2995452 6.38752437,17.1831059 6.38752437,17.0333983 L6.38752437,15.4365172 C6.38752437,15.2868096 6.50396361,15.1703704 6.65367122,15.1703704 L8.25055231,15.1703704 C8.40025991,15.1703704 8.51669916,15.2868096 8.51669916,15.4365172 Z M12.7750487,15.4365172 L12.7750487,17.0333983 C12.7750487,17.1831059 12.6586095,17.2995452 12.5089019,17.2995452 L10.9120208,17.2995452 C10.7623132,17.2995452 10.6458739,17.1831059 10.6458739,17.0333983 L10.6458739,15.4365172 C10.6458739,15.2868096 10.7623132,15.1703704 10.9120208,15.1703704 L12.5089019,15.1703704 C12.6586095,15.1703704 12.7750487,15.2868096 12.7750487,15.4365172 Z M17.0333983,15.4365172 L17.0333983,17.0333983 C17.0333983,17.1831059 16.9169591,17.2995452 16.7672515,17.2995452 L15.1703704,17.2995452 C15.0206628,17.2995452 14.9042235,17.1831059 14.9042235,17.0333983 L14.9042235,15.4365172 C14.9042235,15.2868096 15.0206628,15.1703704 15.1703704,15.1703704 L16.7672515,15.1703704 C16.9169591,15.1703704 17.0333983,15.2868096 17.0333983,15.4365172 Z M21.2917479,15.4365172 L21.2917479,17.0333983 C21.2917479,17.1831059 21.1753086,17.2995452 21.025601,17.2995452 L19.4287199,17.2995452 C19.2790123,17.2995452 19.1625731,17.1831059 19.1625731,17.0333983 L19.1625731,15.4365172 C19.1625731,15.2868096 19.2790123,15.1703704 19.4287199,15.1703704 L21.025601,15.1703704 C21.1753086,15.1703704 21.2917479,15.2868096 21.2917479,15.4365172 Z M25.5500975,15.4365172 L25.5500975,17.0333983 C25.5500975,17.1831059 25.4336582,17.2995452 25.2839506,17.2995452 L23.6870695,17.2995452 C23.5373619,17.2995452 23.4209227,17.1831059 23.4209227,17.0333983 L23.4209227,15.4365172 C23.4209227,15.2868096 23.5373619,15.1703704 23.6870695,15.1703704 L25.2839506,15.1703704 C25.4336582,15.1703704 25.5500975,15.2868096 25.5500975,15.4365172 Z M8.51669916,11.1781676 L8.51669916,12.7750487 C8.51669916,12.9247563 8.40025991,13.0411956 8.25055231,13.0411956 L6.65367122,13.0411956 C6.50396361,13.0411956 6.38752437,12.9247563 6.38752437,12.7750487 L6.38752437,11.1781676 C6.38752437,11.02846 6.50396361,10.9120208 6.65367122,10.9120208 L8.25055231,10.9120208 C8.40025991,10.9120208 8.51669916,11.02846 8.51669916,11.1781676 Z M12.7750487,11.1781676 L12.7750487,12.7750487 C12.7750487,12.9247563 12.6586095,13.0411956 12.5089019,13.0411956 L10.9120208,13.0411956 C10.7623132,13.0411956 10.6458739,12.9247563 10.6458739,12.7750487 L10.6458739,11.1781676 C10.6458739,11.02846 10.7623132,10.9120208 10.9120208,10.9120208 L12.5089019,10.9120208 C12.6586095,10.9120208 12.7750487,11.02846 12.7750487,11.1781676 Z M17.0333983,11.1781676 L17.0333983,12.7750487 C17.0333983,12.9247563 16.9169591,13.0411956 16.7672515,13.0411956 L15.1703704,13.0411956 C15.0206628,13.0411956 14.9042235,12.9247563 14.9042235,12.7750487 L14.9042235,11.1781676 C14.9042235,11.02846 15.0206628,10.9120208 15.1703704,10.9120208 L16.7672515,10.9120208 C16.9169591,10.9120208 17.0333983,11.02846 17.0333983,11.1781676 Z M21.2917479,11.1781676 L21.2917479,12.7750487 C21.2917479,12.9247563 21.1753086,13.0411956 21.025601,13.0411956 L19.4287199,13.0411956 C19.2790123,13.0411956 19.1625731,12.9247563 19.1625731,12.7750487 L19.1625731,11.1781676 C19.1625731,11.02846 19.2790123,10.9120208 19.4287199,10.9120208 L21.025601,10.9120208 C21.1753086,10.9120208 21.2917479,11.02846 21.2917479,11.1781676 Z M25.5500975,11.1781676 L25.5500975,12.7750487 C25.5500975,12.9247563 25.4336582,13.0411956 25.2839506,13.0411956 L23.6870695,13.0411956 C23.5373619,13.0411956 23.4209227,12.9247563 23.4209227,12.7750487 L23.4209227,11.1781676 C23.4209227,11.02846 23.5373619,10.9120208 23.6870695,10.9120208 L25.2839506,10.9120208 C25.4336582,10.9120208 25.5500975,11.02846 25.5500975,11.1781676 Z" id="icon"></path>
                </g>
            </g>
        </g>
    </g>
</svg>