<?xml version="1.0" encoding="UTF-8"?>
<svg width="59px" height="59px" viewBox="0 0 59 59" version="1.1" xmlns="http://www.w3.org/2000/svg" xmlns:xlink="http://www.w3.org/1999/xlink">
    <!-- Generator: Sketch 55 (78076) - https://sketchapp.com -->
    <title>icon-sun</title>
    <desc>Created with Sketch.</desc>
    <defs>
        <path d="M28.5,42.5 C36.2319865,42.5 42.5,36.2319865 42.5,28.5 C42.5,20.7680135 36.2319865,14.5 28.5,14.5 C20.7680135,14.5 14.5,20.7680135 14.5,28.5 C14.5,36.2319865 20.7680135,42.5 28.5,42.5 Z M28.5,44.5 C19.663444,44.5 12.5,37.336556 12.5,28.5 C12.5,19.663444 19.663444,12.5 28.5,12.5 C37.336556,12.5 44.5,19.663444 44.5,28.5 C44.5,37.336556 37.336556,44.5 28.5,44.5 Z M27.5,0 C27.5,-0.55228475 27.9477153,-1 28.5,-1 C29.0522847,-1 29.5,-0.55228475 29.5,0 L29.5,7 C29.5,7.55228475 29.0522847,8 28.5,8 C27.9477153,8 27.5,7.55228475 27.5,7 L27.5,0 Z M27.5,50 C27.5,49.4477153 27.9477153,49 28.5,49 C29.0522847,49 29.5,49.4477153 29.5,50 L29.5,57 C29.5,57.5522847 29.0522847,58 28.5,58 C27.9477153,58 27.5,57.5522847 27.5,57 L27.5,50 Z M57,27.5 C57.5522847,27.5 58,27.9477153 58,28.5 C58,29.0522847 57.5522847,29.5 57,29.5 L50,29.5 C49.4477153,29.5 49,29.0522847 49,28.5 C49,27.9477153 49.4477153,27.5 50,27.5 L57,27.5 Z M7,27.5 C7.55228475,27.5 8,27.9477153 8,28.5 C8,29.0522847 7.55228475,29.5 7,29.5 L0,29.5 C-0.55228475,29.5 -1,29.0522847 -1,28.5 C-1,27.9477153 -0.55228475,27.5 0,27.5 L7,27.5 Z M49.35965,47.9454365 C49.7501743,48.3359608 49.7501743,48.9691258 49.35965,49.35965 C48.9691258,49.7501743 48.3359608,49.7501743 47.9454365,49.35965 L42.995689,44.4099026 C42.6051647,44.0193783 42.6051647,43.3862133 42.995689,42.995689 C43.3862133,42.6051647 44.0193783,42.6051647 44.4099026,42.995689 L49.35965,47.9454365 Z M14.004311,12.5900974 C14.3948353,12.9806217 14.3948353,13.6137867 14.004311,14.004311 C13.6137867,14.3948353 12.9806217,14.3948353 12.5900974,14.004311 L7.64034995,9.05456352 C7.24982566,8.66403923 7.24982566,8.03087425 7.64034995,7.64034995 C8.03087425,7.24982566 8.66403923,7.24982566 9.05456352,7.64034995 L14.004311,12.5900974 Z M47.9454365,7.64034995 C48.3359608,7.24982566 48.9691258,7.24982566 49.35965,7.64034995 C49.7501743,8.03087425 49.7501743,8.66403923 49.35965,9.05456352 L44.4099026,14.004311 C44.0193783,14.3948353 43.3862133,14.3948353 42.995689,14.004311 C42.6051647,13.6137867 42.6051647,12.9806217 42.995689,12.5900974 L47.9454365,7.64034995 Z M12.5900974,42.995689 C12.9806217,42.6051647 13.6137867,42.6051647 14.004311,42.995689 C14.3948353,43.3862133 14.3948353,44.0193783 14.004311,44.4099026 L9.05456352,49.35965 C8.66403923,49.7501743 8.03087425,49.7501743 7.64034995,49.35965 C7.24982566,48.9691258 7.24982566,48.3359608 7.64034995,47.9454365 L12.5900974,42.995689 Z" id="path-1"></path>
    </defs>
    <g id="Symbols" stroke="none" stroke-width="1" fill="none" fill-rule="evenodd">
        <g id="ico/Sun" transform="translate(1.000000, 1.000000)">
            <mask id="mask-2" fill="white">
                <use xlink:href="#path-1"></use>
            </mask>
            <use id="icon-sun" fill="#FFFFFF" fill-rule="nonzero" xlink:href="#path-1"></use>
        </g>
    </g>
</svg>