<?xml version="1.0" encoding="UTF-8"?>
<svg width="32px" height="32px" viewBox="0 0 32 32" version="1.1" xmlns="http://www.w3.org/2000/svg" xmlns:xlink="http://www.w3.org/1999/xlink">
    <!-- Generator: Sketch 55.2 (78181) - https://sketchapp.com -->
    <title>UI/Icon/Instagram</title>
    <desc>Created with Sketch.</desc>
    <g id="components" stroke="none" stroke-width="1" fill="none" fill-rule="evenodd">
        <g id="social" transform="translate(-759.000000, -416.000000)" fill="#74EBBB">
            <g id="hover-state" transform="translate(620.000000, 384.000000)">
                <g id="UI/Icon/Instagram" transform="translate(131.000000, 24.000000)">
                    <path d="M17,8 L31,8 C35.9705627,8 40,12.0294373 40,17 L40,31 C40,35.9705627 35.9705627,40 31,40 L17,40 C12.0294373,40 8,35.9705627 8,31 L8,17 C8,12.0294373 12.0294373,8 17,8 Z M17,9.5 C12.8578644,9.5 9.5,12.8578644 9.5,17 L9.5,31 C9.5,35.1421356 12.8578644,38.5 17,38.5 L31,38.5 C35.1421356,38.5 38.5,35.1421356 38.5,31 L38.5,17 C38.5,12.8578644 35.1421356,9.5 31,9.5 L17,9.5 Z M24,32 C19.581722,32 16,28.418278 16,24 C16,19.581722 19.581722,16 24,16 C28.418278,16 32,19.581722 32,24 C32,28.418278 28.418278,32 24,32 Z M24,30.5 C27.5898509,30.5 30.5,27.5898509 30.5,24 C30.5,20.4101491 27.5898509,17.5 24,17.5 C20.4101491,17.5 17.5,20.4101491 17.5,24 C17.5,27.5898509 20.4101491,30.5 24,30.5 Z M32.5,17.5 C31.3954305,17.5 30.5,16.6045695 30.5,15.5 C30.5,14.3954305 31.3954305,13.5 32.5,13.5 C33.6045695,13.5 34.5,14.3954305 34.5,15.5 C34.5,16.6045695 33.6045695,17.5 32.5,17.5 Z" id="icon"></path>
                </g>
            </g>
        </g>
    </g>
</svg>